<?xml version="1.0" standalone="no"?><!DOCTYPE svg PUBLIC "-//W3C//DTD SVG 1.1//EN" "http://www.w3.org/Graphics/SVG/1.1/DTD/svg11.dtd"><svg t="1644394491995" class="icon" viewBox="0 0 1024 1024" version="1.1" xmlns="http://www.w3.org/2000/svg" p-id="3647" xmlns:xlink="http://www.w3.org/1999/xlink" width="1024" height="1024"><defs><style type="text/css"></style></defs><path d="M0 0h1024v1024H0V0z" fill="#FFBB4D" p-id="3648"></path><path d="M448 512c58.666667 0 106.666667-48 106.666667-106.666667s-48-106.666667-106.666667-106.666666-106.666667 48-106.666667 106.666666 48 106.666667 106.666667 106.666667z m39.466667 21.333333h-78.933334C324.266667 533.333333 256 601.6 256 685.866667c0 34.133333 27.733333 60.8 60.8 60.8h262.4c34.133333 0 60.8-27.733333 60.8-60.8C640 601.6 571.733333 533.333333 487.466667 533.333333z" fill="#FFFFFF" p-id="3649"></path><path d="M602.666667 448c50.133333 0 90.666667-40.533333 90.666666-90.666667S652.8 266.666667 602.666667 266.666667 512 307.2 512 357.333333s40.533333 90.666667 90.666667 90.666667z m36.266666 21.333333h-71.466666C494.933333 469.333333 437.333333 526.933333 437.333333 598.4c0 28.8 23.466667 52.266667 52.266667 52.266667h227.2c28.8 0 52.266667-23.466667 52.266667-52.266667C768 526.933333 710.4 469.333333 638.933333 469.333333z" fill="#FFFFFF" opacity=".5" p-id="3650"></path><path d="M0 0h1024v1024H0V0z" fill="#5C9EFF" p-id="3651"></path><path d="M304 421.333333h300.8l-32-89.6c-7.466667-21.333333-30.933333-38.4-52.266667-38.4H298.666667c-18.133333 0-28.8 12.8-26.666667 29.866667v172.8c0 18.133333 13.866667 32 32 32v-106.666667z" fill="#FFFFFF" opacity=".5" p-id="3652"></path><path d="M709.333333 357.333333h-437.333333v330.666667c0 23.466667 19.2 42.666667 42.666667 42.666667h394.666666c23.466667 0 42.666667-19.2 42.666667-42.666667v-288c0-23.466667-19.2-42.666667-42.666667-42.666667z m-74.666666 256h-245.333334c-11.733333 0-21.333333-9.6-21.333333-21.333333s9.6-21.333333 21.333333-21.333333h245.333334c11.733333 0 21.333333 9.6 21.333333 21.333333s-9.6 21.333333-21.333333 21.333333z m0-106.666666h-245.333334c-11.733333 0-21.333333-9.6-21.333333-21.333334s9.6-21.333333 21.333333-21.333333h245.333334c11.733333 0 21.333333 9.6 21.333333 21.333333s-9.6 21.333333-21.333333 21.333334z" fill="#FFFFFF" p-id="3653"></path><path d="M389.333333 506.666667h245.333334c11.733333 0 21.333333-9.6 21.333333-21.333334s-9.6-21.333333-21.333333-21.333333h-245.333334c-11.733333 0-21.333333 9.6-21.333333 21.333333s9.6 21.333333 21.333333 21.333334zM634.666667 570.666667h-245.333334c-11.733333 0-21.333333 9.6-21.333333 21.333333s9.6 21.333333 21.333333 21.333333h245.333334c11.733333 0 21.333333-9.6 21.333333-21.333333s-9.6-21.333333-21.333333-21.333333z" fill="#FFFFFF" opacity=".5" p-id="3654"></path><path d="M0 0h1024v1024H0V0z" fill="#FFBB4D" p-id="3655"></path><path d="M576 437.333333H362.666667c-11.733333 0-21.333333 9.6-21.333334 21.333334s9.6 21.333333 21.333334 21.333333h213.333333c11.733333 0 21.333333-9.6 21.333333-21.333333s-9.6-21.333333-21.333333-21.333334zM469.333333 522.666667H362.666667c-11.733333 0-21.333333 9.6-21.333334 21.333333s9.6 21.333333 21.333334 21.333333h106.666666c11.733333 0 21.333333-9.6 21.333334-21.333333s-9.6-21.333333-21.333334-21.333333zM384 608h-21.333333c-11.733333 0-21.333333 9.6-21.333334 21.333333s9.6 21.333333 21.333334 21.333334h21.333333c11.733333 0 21.333333-9.6 21.333333-21.333334s-9.6-21.333333-21.333333-21.333333z" fill="#FFFFFF" opacity=".5" p-id="3656"></path><path d="M742.4 368L536.533333 256c0-1.066667-1.066667-3.2-2.133333-4.266667-4.266667-8.533333-13.866667-11.733333-22.4-8.533333h-1.066667c-8.533333-5.333333-20.266667-2.133333-25.6 7.466667-2.133333 3.2-2.133333 5.333333-2.133333 8.533333L278.4 373.333333c-8.533333 5.333333-11.733333 17.066667-6.4 25.6 5.333333 9.6 17.066667 12.8 25.6 7.466667l215.466667-120.533333 211.2 115.2c8.533333 5.333333 20.266667 2.133333 25.6-7.466667 4.266667-8.533333 2.133333-20.266667-7.466667-25.6z" fill="#FFFFFF" opacity=".5" p-id="3657"></path><path d="M725.333333 352H298.666667c-23.466667 0-42.666667 19.2-42.666667 42.666667v288c0 23.466667 19.2 42.666667 42.666667 42.666666h426.666666c23.466667 0 42.666667-19.2 42.666667-42.666666V394.666667c0-23.466667-19.2-42.666667-42.666667-42.666667zM384 650.666667h-21.333333c-11.733333 0-21.333333-9.6-21.333334-21.333334s9.6-21.333333 21.333334-21.333333h21.333333c11.733333 0 21.333333 9.6 21.333333 21.333333s-9.6 21.333333-21.333333 21.333334z m85.333333-85.333334H362.666667c-11.733333 0-21.333333-9.6-21.333334-21.333333s9.6-21.333333 21.333334-21.333333h106.666666c11.733333 0 21.333333 9.6 21.333334 21.333333s-9.6 21.333333-21.333334 21.333333z m106.666667-85.333333H362.666667c-11.733333 0-21.333333-9.6-21.333334-21.333333s9.6-21.333333 21.333334-21.333334h213.333333c11.733333 0 21.333333 9.6 21.333333 21.333334s-9.6 21.333333-21.333333 21.333333z" fill="#FFFFFF" p-id="3658"></path><path d="M0 0h1024v1024H0V0z" fill="#FF8A98" p-id="3659"></path><path d="M638.933333 442.666667c-9.6-9.6-24.533333-9.6-34.133333 0l-138.666667 138.666666-57.6-57.6c-9.6-9.6-24.533333-9.6-34.133333 0-9.6 9.6-9.6 24.533333 0 34.133334l74.666667 74.666666c9.6 9.6 24.533333 9.6 34.133333 0l155.733333-155.733333c9.6-9.6 9.6-24.533333 0-34.133333z" fill="#FFFFFF" opacity=".5" p-id="3660"></path><path d="M720 352h-416c-23.466667 0-42.666667 19.2-42.666667 42.666667v298.666666c0 23.466667 19.2 42.666667 42.666667 42.666667h416c23.466667 0 42.666667-19.2 42.666667-42.666667V394.666667c0-23.466667-19.2-42.666667-42.666667-42.666667z m-81.066667 124.8L483.2 632.533333c-9.6 9.6-24.533333 9.6-34.133333 0l-74.666667-74.666666c-9.6-9.6-9.6-24.533333 0-34.133334 9.6-9.6 24.533333-9.6 34.133333 0l57.6 57.6 138.666667-138.666666c9.6-9.6 24.533333-9.6 34.133333 0 9.6 9.6 9.6 24.533333 0 34.133333z" fill="#FFFFFF" p-id="3661"></path><path d="M357.333333 298.666667h298.666667c23.466667 0 42.666667 19.2 42.666667 42.666666v10.666667h-384v-10.666667c0-23.466667 19.2-42.666667 42.666666-42.666666z" fill="#FFFFFF" opacity=".5" p-id="3662"></path><path d="M400 256h224c23.466667 0 42.666667 19.2 42.666667 42.666667h-309.333334s19.2-42.666667 42.666667-42.666667z" fill="#FFFFFF" opacity=".25" p-id="3663"></path><path d="M0 0h1024v1024H0V0z" fill="#FFBB4D" p-id="3664"></path><path d="M549.333333 437.333333h-213.333333c-11.733333 0-21.333333 9.6-21.333333 21.333334s9.6 21.333333 21.333333 21.333333h213.333333c11.733333 0 21.333333-9.6 21.333334-21.333333s-9.6-21.333333-21.333334-21.333334zM464 512h-128c-11.733333 0-21.333333 9.6-21.333333 21.333333s9.6 21.333333 21.333333 21.333334h128c11.733333 0 21.333333-9.6 21.333333-21.333334s-9.6-21.333333-21.333333-21.333333zM400 586.666667h-64c-11.733333 0-21.333333 9.6-21.333333 21.333333s9.6 21.333333 21.333333 21.333333h64c11.733333 0 21.333333-9.6 21.333333-21.333333s-9.6-21.333333-21.333333-21.333333z" fill="#FFFFFF" opacity=".5" p-id="3665"></path><path d="M798.933333 485.333333c-9.6-9.6-24.533333-9.6-34.133333 0l-138.666667 138.666667-57.6-57.6c-9.6-9.6-24.533333-9.6-34.133333 0-9.6 9.6-9.6 24.533333 0 34.133333l74.666667 74.666667c9.6 9.6 24.533333 9.6 34.133333 0l155.733333-155.733333c9.6-9.6 9.6-24.533333 0-34.133334z" fill="#FFFFFF" opacity=".5" p-id="3666"></path><path d="M642.133333 675.2c-9.6 9.6-24.533333 9.6-34.133333 0l-74.666667-74.666667c-9.6-9.6-9.6-24.533333 0-34.133333 9.6-9.6 24.533333-9.6 34.133334 0l57.6 57.6 136.533333-136.533333V394.666667c0-23.466667-19.2-42.666667-42.666667-42.666667h-416c-23.466667 0-42.666667 19.2-42.666666 42.666667v298.666666c0 23.466667 19.2 42.666667 42.666666 42.666667h416c23.466667 0 42.666667-19.2 42.666667-42.666667V555.733333L642.133333 675.2zM336 437.333333h213.333333c11.733333 0 21.333333 9.6 21.333334 21.333334s-9.6 21.333333-21.333334 21.333333h-213.333333c-11.733333 0-21.333333-9.6-21.333333-21.333333s9.6-21.333333 21.333333-21.333334z m64 192h-64c-11.733333 0-21.333333-9.6-21.333333-21.333333s9.6-21.333333 21.333333-21.333333h64c11.733333 0 21.333333 9.6 21.333333 21.333333s-9.6 21.333333-21.333333 21.333333z m64-74.666666h-128c-11.733333 0-21.333333-9.6-21.333333-21.333334s9.6-21.333333 21.333333-21.333333h128c11.733333 0 21.333333 9.6 21.333333 21.333333s-9.6 21.333333-21.333333 21.333334z" fill="#FFFFFF" p-id="3667"></path><path d="M357.333333 298.666667h298.666667c23.466667 0 42.666667 19.2 42.666667 42.666666v10.666667h-384v-10.666667c0-23.466667 19.2-42.666667 42.666666-42.666666z" fill="#FFFFFF" opacity=".5" p-id="3668"></path><path d="M400 256h224c23.466667 0 42.666667 19.2 42.666667 42.666667h-309.333334s19.2-42.666667 42.666667-42.666667z" fill="#FFFFFF" opacity=".25" p-id="3669"></path><path d="M0 0h1024v1024H0V0z" fill="#1296db" p-id="3670" data-spm-anchor-id="a313x.7781069.0.i8" class="selected"></path><path d="M626.133333 522.666667h-5.333333c0-88.533333-73.6-160-165.333333-160-75.733333 0-139.733333 50.133333-158.933334 117.333333h-1.066666c-61.866667 0-112 50.133333-112 112 0 59.733333 46.933333 108.8 106.666666 112h336c50.133333 0 90.666667-40.533333 90.666667-90.666667S676.266667 522.666667 626.133333 522.666667z m-154.666666 39.466666v75.733334c0 12.8-9.6 23.466667-21.333334 23.466666s-21.333333-10.666667-21.333333-23.466666v-75.733334H384l66.133333-78.933333 72.533334 78.933333h-51.2z" fill="#FFFFFF" p-id="3671"></path><path d="M755.2 425.6c0-88.533333-71.466667-160-160-160-52.266667 0-98.133333 25.6-128 64 91.733333 0 168.533333 65.066667 187.733333 151.466667 57.6 10.666667 100.266667 60.8 100.266667 120.533333v5.333333c48-2.133333 85.333333-41.6 85.333333-90.666666 0-48-37.333333-87.466667-85.333333-90.666667zM471.466667 562.133333v75.733334c0 12.8-9.6 23.466667-21.333334 23.466666s-21.333333-10.666667-21.333333-23.466666v-75.733334H384l66.133333-78.933333 72.533334 78.933333h-51.2z" fill="#FFFFFF" opacity=".5" p-id="3672"></path></svg>